<mxfile host="app.diagrams.net" modified="2024-03-18T22:21:52.690Z" agent="Mozilla/5.0 (Windows NT 10.0; Win64; x64) AppleWebKit/537.36 (KHTML, like Gecko) Chrome/122.0.0.0 Safari/537.36" etag="40QtQwr1Cc5E6ztJ7ikG" version="24.0.7" type="device">
  <diagram name="Page-1" id="vXu0IX5LAyYo3Lyx9wMj">
    <mxGraphModel dx="2600" dy="948" grid="1" gridSize="10" guides="1" tooltips="1" connect="1" arrows="1" fold="1" page="1" pageScale="1" pageWidth="850" pageHeight="1100" math="0" shadow="0">
      <root>
        <mxCell id="0" />
        <mxCell id="1" parent="0" />
        <mxCell id="zVx8EVchHj5CL49JaXiL-1" value="VIN Number" style="rounded=0;whiteSpace=wrap;html=1;fontStyle=4" parent="1" vertex="1">
          <mxGeometry x="120" y="70" width="120" height="60" as="geometry" />
        </mxCell>
        <mxCell id="zVx8EVchHj5CL49JaXiL-2" value="Brand" style="rounded=0;whiteSpace=wrap;html=1;" parent="1" vertex="1">
          <mxGeometry x="240" y="70" width="120" height="60" as="geometry" />
        </mxCell>
        <mxCell id="zVx8EVchHj5CL49JaXiL-3" value="Model Type" style="rounded=0;whiteSpace=wrap;html=1;" parent="1" vertex="1">
          <mxGeometry x="360" y="70" width="120" height="60" as="geometry" />
        </mxCell>
        <mxCell id="zVx8EVchHj5CL49JaXiL-4" value="Model Year" style="rounded=0;whiteSpace=wrap;html=1;" parent="1" vertex="1">
          <mxGeometry x="480" y="70" width="120" height="60" as="geometry" />
        </mxCell>
        <mxCell id="zVx8EVchHj5CL49JaXiL-5" value="&lt;font size=&quot;1&quot; style=&quot;&quot;&gt;&lt;b style=&quot;font-size: 22px;&quot;&gt;Car&lt;/b&gt;&lt;/font&gt;" style="text;html=1;align=center;verticalAlign=middle;whiteSpace=wrap;rounded=0;fontSize=16;" parent="1" vertex="1">
          <mxGeometry x="110" y="40" width="60" height="30" as="geometry" />
        </mxCell>
        <mxCell id="zVx8EVchHj5CL49JaXiL-6" value="Model Name" style="rounded=0;whiteSpace=wrap;html=1;" parent="1" vertex="1">
          <mxGeometry x="600" y="70" width="120" height="60" as="geometry" />
        </mxCell>
        <mxCell id="zVx8EVchHj5CL49JaXiL-7" value="Part Number" style="rounded=0;whiteSpace=wrap;html=1;fontStyle=4" parent="1" vertex="1">
          <mxGeometry x="120" y="190" width="120" height="60" as="geometry" />
        </mxCell>
        <mxCell id="zVx8EVchHj5CL49JaXiL-8" value="&lt;b&gt;&lt;font style=&quot;font-size: 22px;&quot;&gt;Part&lt;/font&gt;&lt;/b&gt;" style="text;html=1;align=center;verticalAlign=middle;whiteSpace=wrap;rounded=0;fontSize=16;" parent="1" vertex="1">
          <mxGeometry x="110" y="160" width="60" height="30" as="geometry" />
        </mxCell>
        <mxCell id="zVx8EVchHj5CL49JaXiL-9" value="Part Name" style="rounded=0;whiteSpace=wrap;html=1;" parent="1" vertex="1">
          <mxGeometry x="240" y="190" width="120" height="60" as="geometry" />
        </mxCell>
        <mxCell id="zVx8EVchHj5CL49JaXiL-10" value="Part Type" style="rounded=0;whiteSpace=wrap;html=1;" parent="1" vertex="1">
          <mxGeometry x="360" y="190" width="120" height="60" as="geometry" />
        </mxCell>
        <mxCell id="zVx8EVchHj5CL49JaXiL-11" value="Price" style="rounded=0;whiteSpace=wrap;html=1;" parent="1" vertex="1">
          <mxGeometry x="480" y="190" width="120" height="60" as="geometry" />
        </mxCell>
        <mxCell id="zVx8EVchHj5CL49JaXiL-12" value="Note" style="rounded=0;whiteSpace=wrap;html=1;" parent="1" vertex="1">
          <mxGeometry x="600" y="190" width="120" height="60" as="geometry" />
        </mxCell>
        <mxCell id="zVx8EVchHj5CL49JaXiL-13" value="&lt;b&gt;&lt;font style=&quot;font-size: 22px;&quot;&gt;Maintenance Task&lt;/font&gt;&lt;/b&gt;" style="text;html=1;align=center;verticalAlign=middle;whiteSpace=wrap;rounded=0;fontSize=16;" parent="1" vertex="1">
          <mxGeometry x="120" y="280" width="190" height="30" as="geometry" />
        </mxCell>
        <mxCell id="zVx8EVchHj5CL49JaXiL-15" value="Task ID" style="rounded=0;whiteSpace=wrap;html=1;fontStyle=4" parent="1" vertex="1">
          <mxGeometry x="120" y="310" width="120" height="60" as="geometry" />
        </mxCell>
        <mxCell id="zVx8EVchHj5CL49JaXiL-16" value="Date" style="rounded=0;whiteSpace=wrap;html=1;" parent="1" vertex="1">
          <mxGeometry x="240" y="310" width="120" height="60" as="geometry" />
        </mxCell>
        <mxCell id="zVx8EVchHj5CL49JaXiL-17" value="Labour" style="rounded=0;whiteSpace=wrap;html=1;" parent="1" vertex="1">
          <mxGeometry x="360" y="310" width="120" height="60" as="geometry" />
        </mxCell>
        <mxCell id="zVx8EVchHj5CL49JaXiL-18" value="&lt;b&gt;&lt;font style=&quot;font-size: 22px;&quot;&gt;Repair Order&lt;/font&gt;&lt;/b&gt;" style="text;html=1;align=center;verticalAlign=middle;whiteSpace=wrap;rounded=0;fontSize=16;" parent="1" vertex="1">
          <mxGeometry x="120" y="450" width="150" height="30" as="geometry" />
        </mxCell>
        <mxCell id="zVx8EVchHj5CL49JaXiL-19" value="Order ID" style="rounded=0;whiteSpace=wrap;html=1;fontStyle=4" parent="1" vertex="1">
          <mxGeometry x="120" y="480" width="120" height="60" as="geometry" />
        </mxCell>
        <mxCell id="zVx8EVchHj5CL49JaXiL-20" value="Date" style="rounded=0;whiteSpace=wrap;html=1;" parent="1" vertex="1">
          <mxGeometry x="240" y="480" width="120" height="60" as="geometry" />
        </mxCell>
        <mxCell id="zVx8EVchHj5CL49JaXiL-21" value="Status" style="rounded=0;whiteSpace=wrap;html=1;" parent="1" vertex="1">
          <mxGeometry x="360" y="480" width="120" height="60" as="geometry" />
        </mxCell>
        <mxCell id="zVx8EVchHj5CL49JaXiL-22" value="Payment Method" style="rounded=0;whiteSpace=wrap;html=1;" parent="1" vertex="1">
          <mxGeometry x="480" y="480" width="120" height="60" as="geometry" />
        </mxCell>
        <mxCell id="zVx8EVchHj5CL49JaXiL-23" value="&lt;b&gt;&lt;font style=&quot;font-size: 22px;&quot;&gt;Supplier&lt;/font&gt;&lt;/b&gt;" style="text;html=1;align=center;verticalAlign=middle;whiteSpace=wrap;rounded=0;fontSize=16;" parent="1" vertex="1">
          <mxGeometry x="90" y="580" width="150" height="30" as="geometry" />
        </mxCell>
        <mxCell id="zVx8EVchHj5CL49JaXiL-24" value="Company ID" style="rounded=0;whiteSpace=wrap;html=1;fontStyle=4" parent="1" vertex="1">
          <mxGeometry x="120" y="610" width="120" height="60" as="geometry" />
        </mxCell>
        <mxCell id="zVx8EVchHj5CL49JaXiL-25" value="Company Name" style="rounded=0;whiteSpace=wrap;html=1;" parent="1" vertex="1">
          <mxGeometry x="240" y="610" width="120" height="60" as="geometry" />
        </mxCell>
        <mxCell id="zVx8EVchHj5CL49JaXiL-26" value="Website" style="rounded=0;whiteSpace=wrap;html=1;" parent="1" vertex="1">
          <mxGeometry x="360" y="610" width="120" height="60" as="geometry" />
        </mxCell>
        <mxCell id="zVx8EVchHj5CL49JaXiL-27" value="&lt;b&gt;&lt;font style=&quot;font-size: 22px;&quot;&gt;Service Center&lt;/font&gt;&lt;/b&gt;" style="text;html=1;align=center;verticalAlign=middle;whiteSpace=wrap;rounded=0;fontSize=16;" parent="1" vertex="1">
          <mxGeometry x="100" y="700" width="190" height="30" as="geometry" />
        </mxCell>
        <mxCell id="zVx8EVchHj5CL49JaXiL-28" value="Center Number" style="rounded=0;whiteSpace=wrap;html=1;fontStyle=4" parent="1" vertex="1">
          <mxGeometry x="120" y="730" width="120" height="60" as="geometry" />
        </mxCell>
        <mxCell id="zVx8EVchHj5CL49JaXiL-29" value="Building Number" style="rounded=0;whiteSpace=wrap;html=1;" parent="1" vertex="1">
          <mxGeometry x="240" y="730" width="120" height="60" as="geometry" />
        </mxCell>
        <mxCell id="zVx8EVchHj5CL49JaXiL-30" value="District" style="rounded=0;whiteSpace=wrap;html=1;" parent="1" vertex="1">
          <mxGeometry x="360" y="730" width="120" height="60" as="geometry" />
        </mxCell>
        <mxCell id="zVx8EVchHj5CL49JaXiL-31" value="Street Name" style="rounded=0;whiteSpace=wrap;html=1;" parent="1" vertex="1">
          <mxGeometry x="480" y="730" width="120" height="60" as="geometry" />
        </mxCell>
        <mxCell id="zVx8EVchHj5CL49JaXiL-32" value="City" style="rounded=0;whiteSpace=wrap;html=1;" parent="1" vertex="1">
          <mxGeometry x="600" y="730" width="120" height="60" as="geometry" />
        </mxCell>
        <mxCell id="zVx8EVchHj5CL49JaXiL-33" value="&lt;b&gt;&lt;font style=&quot;font-size: 22px;&quot;&gt;Customer&lt;/font&gt;&lt;/b&gt;" style="text;html=1;align=center;verticalAlign=middle;whiteSpace=wrap;rounded=0;fontSize=16;" parent="1" vertex="1">
          <mxGeometry x="100" y="820" width="150" height="30" as="geometry" />
        </mxCell>
        <mxCell id="zVx8EVchHj5CL49JaXiL-34" value="Person ID" style="rounded=0;whiteSpace=wrap;html=1;fontStyle=4" parent="1" vertex="1">
          <mxGeometry x="120" y="850" width="120" height="60" as="geometry" />
        </mxCell>
        <mxCell id="zVx8EVchHj5CL49JaXiL-35" value="First Name&lt;span style=&quot;color: rgba(0, 0, 0, 0); font-family: monospace; font-size: 0px; text-align: start; text-wrap: nowrap;&quot;&gt;%3CmxGraphModel%3E%3Croot%3E%3CmxCell%20id%3D%220%22%2F%3E%3CmxCell%20id%3D%221%22%20parent%3D%220%22%2F%3E%3CmxCell%20id%3D%222%22%20value%3D%22Service%20Center%22%20style%3D%22text%3Bhtml%3D1%3Balign%3Dcenter%3BverticalAlign%3Dmiddle%3BwhiteSpace%3Dwrap%3Brounded%3D0%3BfontSize%3D16%3B%22%20vertex%3D%221%22%20parent%3D%221%22%3E%3CmxGeometry%20x%3D%22100%22%20y%3D%22700%22%20width%3D%22150%22%20height%3D%2230%22%20as%3D%22geometry%22%2F%3E%3C%2FmxCell%3E%3C%2Froot%3E%3C%2FmxGraphModel%3E&lt;/span&gt;" style="rounded=0;whiteSpace=wrap;html=1;" parent="1" vertex="1">
          <mxGeometry x="240" y="850" width="120" height="60" as="geometry" />
        </mxCell>
        <mxCell id="zVx8EVchHj5CL49JaXiL-36" value="Last Name" style="rounded=0;whiteSpace=wrap;html=1;" parent="1" vertex="1">
          <mxGeometry x="480" y="850" width="120" height="60" as="geometry" />
        </mxCell>
        <mxCell id="zVx8EVchHj5CL49JaXiL-37" value="Surname" style="rounded=0;whiteSpace=wrap;html=1;" parent="1" vertex="1">
          <mxGeometry x="360" y="850" width="120" height="60" as="geometry" />
        </mxCell>
        <mxCell id="zVx8EVchHj5CL49JaXiL-38" value="Email" style="rounded=0;whiteSpace=wrap;html=1;" parent="1" vertex="1">
          <mxGeometry x="600" y="850" width="120" height="60" as="geometry" />
        </mxCell>
        <mxCell id="zVx8EVchHj5CL49JaXiL-39" value="Phone Number" style="rounded=0;whiteSpace=wrap;html=1;" parent="1" vertex="1">
          <mxGeometry x="720" y="850" width="120" height="60" as="geometry" />
        </mxCell>
        <mxCell id="zVx8EVchHj5CL49JaXiL-41" value="Date of Birth" style="rounded=0;whiteSpace=wrap;html=1;" parent="1" vertex="1">
          <mxGeometry x="840" y="850" width="120" height="60" as="geometry" />
        </mxCell>
        <mxCell id="zVx8EVchHj5CL49JaXiL-42" value="SSN" style="rounded=0;whiteSpace=wrap;html=1;fontStyle=4" parent="1" vertex="1">
          <mxGeometry x="120" y="980" width="120" height="60" as="geometry" />
        </mxCell>
        <mxCell id="zVx8EVchHj5CL49JaXiL-43" value="&lt;b&gt;&lt;font style=&quot;font-size: 22px;&quot;&gt;Employee&lt;/font&gt;&lt;/b&gt;" style="text;html=1;align=center;verticalAlign=middle;whiteSpace=wrap;rounded=0;fontSize=16;" parent="1" vertex="1">
          <mxGeometry x="100" y="950" width="150" height="30" as="geometry" />
        </mxCell>
        <mxCell id="zVx8EVchHj5CL49JaXiL-44" value="Salary" style="rounded=0;whiteSpace=wrap;html=1;" parent="1" vertex="1">
          <mxGeometry x="240" y="980" width="120" height="60" as="geometry" />
        </mxCell>
        <mxCell id="zVx8EVchHj5CL49JaXiL-45" value="Position" style="rounded=0;whiteSpace=wrap;html=1;" parent="1" vertex="1">
          <mxGeometry x="360" y="980" width="120" height="60" as="geometry" />
        </mxCell>
        <mxCell id="zVx8EVchHj5CL49JaXiL-46" value="&lt;b&gt;&lt;font style=&quot;font-size: 22px;&quot;&gt;Engineer&lt;/font&gt;&lt;/b&gt;" style="text;html=1;align=center;verticalAlign=middle;whiteSpace=wrap;rounded=0;fontSize=16;" parent="1" vertex="1">
          <mxGeometry x="100" y="1070" width="150" height="30" as="geometry" />
        </mxCell>
        <mxCell id="zVx8EVchHj5CL49JaXiL-75" style="edgeStyle=orthogonalEdgeStyle;rounded=0;orthogonalLoop=1;jettySize=auto;html=1;exitX=0;exitY=0.5;exitDx=0;exitDy=0;entryX=0;entryY=0.75;entryDx=0;entryDy=0;strokeWidth=3;" parent="1" source="zVx8EVchHj5CL49JaXiL-47" target="zVx8EVchHj5CL49JaXiL-42" edge="1">
          <mxGeometry relative="1" as="geometry" />
        </mxCell>
        <mxCell id="zVx8EVchHj5CL49JaXiL-47" value="ESSN" style="rounded=0;whiteSpace=wrap;html=1;fontStyle=4" parent="1" vertex="1">
          <mxGeometry x="120" y="1100" width="120" height="60" as="geometry" />
        </mxCell>
        <mxCell id="zVx8EVchHj5CL49JaXiL-48" value="Years of Experience" style="rounded=0;whiteSpace=wrap;html=1;" parent="1" vertex="1">
          <mxGeometry x="240" y="1100" width="120" height="60" as="geometry" />
        </mxCell>
        <mxCell id="zVx8EVchHj5CL49JaXiL-49" value="Specialization" style="rounded=0;whiteSpace=wrap;html=1;" parent="1" vertex="1">
          <mxGeometry x="360" y="1100" width="120" height="60" as="geometry" />
        </mxCell>
        <mxCell id="zVx8EVchHj5CL49JaXiL-50" value="Sex" style="rounded=0;whiteSpace=wrap;html=1;" parent="1" vertex="1">
          <mxGeometry x="960" y="850" width="120" height="60" as="geometry" />
        </mxCell>
        <mxCell id="zVx8EVchHj5CL49JaXiL-51" value="City" style="rounded=0;whiteSpace=wrap;html=1;" parent="1" vertex="1">
          <mxGeometry x="1080" y="850" width="120" height="60" as="geometry" />
        </mxCell>
        <mxCell id="zVx8EVchHj5CL49JaXiL-52" value="District" style="rounded=0;whiteSpace=wrap;html=1;" parent="1" vertex="1">
          <mxGeometry x="1200" y="850" width="120" height="60" as="geometry" />
        </mxCell>
        <mxCell id="zVx8EVchHj5CL49JaXiL-53" value="Street Name&lt;span style=&quot;color: rgba(0, 0, 0, 0); font-family: monospace; font-size: 0px; text-align: start; text-wrap: nowrap;&quot;&gt;%3CmxGraphModel%3E%3Croot%3E%3CmxCell%20id%3D%220%22%2F%3E%3CmxCell%20id%3D%221%22%20parent%3D%220%22%2F%3E%3CmxCell%20id%3D%222%22%20value%3D%22District%22%20style%3D%22rounded%3D0%3BwhiteSpace%3Dwrap%3Bhtml%3D1%3B%22%20vertex%3D%221%22%20parent%3D%221%22%3E%3CmxGeometry%20x%3D%221200%22%20y%3D%22850%22%20width%3D%22120%22%20height%3D%2260%22%20as%3D%22geometry%22%2F%3E%3C%2FmxCell%3E%3C%2Froot%3E%3C%2FmxGraphModel%3E&lt;/span&gt;&lt;span style=&quot;color: rgba(0, 0, 0, 0); font-family: monospace; font-size: 0px; text-align: start; text-wrap: nowrap;&quot;&gt;%3CmxGraphModel%3E%3Croot%3E%3CmxCell%20id%3D%220%22%2F%3E%3CmxCell%20id%3D%221%22%20parent%3D%220%22%2F%3E%3CmxCell%20id%3D%222%22%20value%3D%22District%22%20style%3D%22rounded%3D0%3BwhiteSpace%3Dwrap%3Bhtml%3D1%3B%22%20vertex%3D%221%22%20parent%3D%221%22%3E%3CmxGeometry%20x%3D%221200%22%20y%3D%22850%22%20width%3D%22120%22%20height%3D%2260%22%20as%3D%22geometry%22%2F%3E%3C%2FmxCell%3E%3C%2Froot%3E%3C%2FmxGraphModel%3E&lt;/span&gt;" style="rounded=0;whiteSpace=wrap;html=1;" parent="1" vertex="1">
          <mxGeometry x="1320" y="850" width="120" height="60" as="geometry" />
        </mxCell>
        <mxCell id="zVx8EVchHj5CL49JaXiL-54" value="Building Number" style="rounded=0;whiteSpace=wrap;html=1;" parent="1" vertex="1">
          <mxGeometry x="1440" y="850" width="120" height="60" as="geometry" />
        </mxCell>
        <mxCell id="zVx8EVchHj5CL49JaXiL-74" style="edgeStyle=orthogonalEdgeStyle;rounded=0;orthogonalLoop=1;jettySize=auto;html=1;exitX=0.5;exitY=1;exitDx=0;exitDy=0;entryX=0;entryY=0.5;entryDx=0;entryDy=0;strokeWidth=3;" parent="1" source="zVx8EVchHj5CL49JaXiL-55" target="zVx8EVchHj5CL49JaXiL-42" edge="1">
          <mxGeometry relative="1" as="geometry">
            <Array as="points">
              <mxPoint x="780" y="810" />
              <mxPoint x="50" y="810" />
              <mxPoint x="50" y="1010" />
            </Array>
          </mxGeometry>
        </mxCell>
        <mxCell id="zVx8EVchHj5CL49JaXiL-55" value="ESSN" style="rounded=0;whiteSpace=wrap;html=1;fontStyle=0" parent="1" vertex="1">
          <mxGeometry x="720" y="730" width="120" height="60" as="geometry" />
        </mxCell>
        <mxCell id="zVx8EVchHj5CL49JaXiL-80" style="edgeStyle=orthogonalEdgeStyle;rounded=0;orthogonalLoop=1;jettySize=auto;html=1;exitX=0.5;exitY=0;exitDx=0;exitDy=0;entryX=0;entryY=0.5;entryDx=0;entryDy=0;strokeWidth=3;" parent="1" source="zVx8EVchHj5CL49JaXiL-56" target="zVx8EVchHj5CL49JaXiL-28" edge="1">
          <mxGeometry relative="1" as="geometry">
            <Array as="points">
              <mxPoint x="540" y="940" />
              <mxPoint x="-140" y="940" />
              <mxPoint x="-140" y="760" />
            </Array>
          </mxGeometry>
        </mxCell>
        <mxCell id="zVx8EVchHj5CL49JaXiL-56" value="Center Number" style="rounded=0;whiteSpace=wrap;html=1;fontStyle=0" parent="1" vertex="1">
          <mxGeometry x="480" y="980" width="120" height="60" as="geometry" />
        </mxCell>
        <mxCell id="zVx8EVchHj5CL49JaXiL-85" style="edgeStyle=orthogonalEdgeStyle;rounded=0;orthogonalLoop=1;jettySize=auto;html=1;exitX=0.5;exitY=1;exitDx=0;exitDy=0;entryX=0;entryY=0.5;entryDx=0;entryDy=0;strokeWidth=3;" parent="1" source="zVx8EVchHj5CL49JaXiL-57" target="zVx8EVchHj5CL49JaXiL-19" edge="1">
          <mxGeometry relative="1" as="geometry">
            <Array as="points">
              <mxPoint x="540" y="400" />
              <mxPoint x="100" y="400" />
              <mxPoint x="100" y="510" />
            </Array>
          </mxGeometry>
        </mxCell>
        <mxCell id="zVx8EVchHj5CL49JaXiL-57" value="OrderID" style="rounded=0;whiteSpace=wrap;html=1;" parent="1" vertex="1">
          <mxGeometry x="480" y="310" width="120" height="60" as="geometry" />
        </mxCell>
        <mxCell id="zVx8EVchHj5CL49JaXiL-71" style="edgeStyle=orthogonalEdgeStyle;rounded=0;orthogonalLoop=1;jettySize=auto;html=1;exitX=0.5;exitY=1;exitDx=0;exitDy=0;entryX=0;entryY=0.5;entryDx=0;entryDy=0;strokeWidth=3;" parent="1" source="zVx8EVchHj5CL49JaXiL-58" target="zVx8EVchHj5CL49JaXiL-34" edge="1">
          <mxGeometry relative="1" as="geometry">
            <mxPoint x="780" y="690" as="targetPoint" />
            <Array as="points">
              <mxPoint x="780" y="560" />
              <mxPoint x="100" y="560" />
              <mxPoint x="100" y="880" />
            </Array>
          </mxGeometry>
        </mxCell>
        <mxCell id="zVx8EVchHj5CL49JaXiL-58" value="PersonID" style="rounded=0;whiteSpace=wrap;html=1;" parent="1" vertex="1">
          <mxGeometry x="720" y="120" width="120" height="60" as="geometry" />
        </mxCell>
        <mxCell id="zVx8EVchHj5CL49JaXiL-73" style="edgeStyle=orthogonalEdgeStyle;rounded=0;orthogonalLoop=1;jettySize=auto;html=1;exitX=0.5;exitY=1;exitDx=0;exitDy=0;entryX=0;entryY=0.75;entryDx=0;entryDy=0;strokeWidth=3;" parent="1" source="zVx8EVchHj5CL49JaXiL-59" target="zVx8EVchHj5CL49JaXiL-34" edge="1">
          <mxGeometry relative="1" as="geometry">
            <Array as="points">
              <mxPoint x="660" y="690" />
              <mxPoint x="80" y="690" />
              <mxPoint x="80" y="895" />
            </Array>
          </mxGeometry>
        </mxCell>
        <mxCell id="zVx8EVchHj5CL49JaXiL-59" value="PersonID" style="rounded=0;whiteSpace=wrap;html=1;" parent="1" vertex="1">
          <mxGeometry x="600" y="480" width="120" height="60" as="geometry" />
        </mxCell>
        <mxCell id="zVx8EVchHj5CL49JaXiL-84" style="edgeStyle=orthogonalEdgeStyle;rounded=0;orthogonalLoop=1;jettySize=auto;html=1;exitX=0.5;exitY=1;exitDx=0;exitDy=0;entryX=0;entryY=0.75;entryDx=0;entryDy=0;strokeWidth=3;" parent="1" source="zVx8EVchHj5CL49JaXiL-60" target="zVx8EVchHj5CL49JaXiL-28" edge="1">
          <mxGeometry relative="1" as="geometry">
            <Array as="points">
              <mxPoint x="660" y="420" />
              <mxPoint x="-490" y="420" />
              <mxPoint x="-490" y="775" />
            </Array>
          </mxGeometry>
        </mxCell>
        <mxCell id="zVx8EVchHj5CL49JaXiL-60" value="CenterNumber" style="rounded=0;whiteSpace=wrap;html=1;" parent="1" vertex="1">
          <mxGeometry x="600" y="310" width="120" height="60" as="geometry" />
        </mxCell>
        <mxCell id="zVx8EVchHj5CL49JaXiL-76" style="edgeStyle=orthogonalEdgeStyle;rounded=0;orthogonalLoop=1;jettySize=auto;html=1;exitX=0;exitY=0.5;exitDx=0;exitDy=0;entryX=0;entryY=0.75;entryDx=0;entryDy=0;strokeWidth=3;" parent="1" source="zVx8EVchHj5CL49JaXiL-61" target="zVx8EVchHj5CL49JaXiL-47" edge="1">
          <mxGeometry relative="1" as="geometry" />
        </mxCell>
        <mxCell id="zVx8EVchHj5CL49JaXiL-61" value="SSN" style="rounded=0;whiteSpace=wrap;html=1;fontStyle=4" parent="1" vertex="1">
          <mxGeometry x="120" y="1240" width="120" height="60" as="geometry" />
        </mxCell>
        <mxCell id="zVx8EVchHj5CL49JaXiL-62" value="&lt;b&gt;&lt;font style=&quot;font-size: 22px;&quot;&gt;Perfroms&lt;/font&gt;&lt;/b&gt;" style="text;html=1;align=center;verticalAlign=middle;whiteSpace=wrap;rounded=0;fontSize=16;" parent="1" vertex="1">
          <mxGeometry x="100" y="1210" width="150" height="30" as="geometry" />
        </mxCell>
        <mxCell id="zVx8EVchHj5CL49JaXiL-77" style="edgeStyle=orthogonalEdgeStyle;rounded=0;orthogonalLoop=1;jettySize=auto;html=1;exitX=0.5;exitY=0;exitDx=0;exitDy=0;entryX=0;entryY=0.5;entryDx=0;entryDy=0;strokeWidth=3;" parent="1" source="zVx8EVchHj5CL49JaXiL-63" target="zVx8EVchHj5CL49JaXiL-15" edge="1">
          <mxGeometry relative="1" as="geometry">
            <Array as="points">
              <mxPoint x="300" y="1190" />
              <mxPoint x="30" y="1190" />
              <mxPoint x="30" y="340" />
            </Array>
          </mxGeometry>
        </mxCell>
        <mxCell id="zVx8EVchHj5CL49JaXiL-63" value="TaskID" style="rounded=0;whiteSpace=wrap;html=1;fontStyle=4" parent="1" vertex="1">
          <mxGeometry x="240" y="1240" width="120" height="60" as="geometry" />
        </mxCell>
        <mxCell id="zVx8EVchHj5CL49JaXiL-64" value="&lt;b&gt;&lt;font style=&quot;font-size: 22px;&quot;&gt;Brings&lt;/font&gt;&lt;/b&gt;" style="text;html=1;align=center;verticalAlign=middle;whiteSpace=wrap;rounded=0;fontSize=16;" parent="1" vertex="1">
          <mxGeometry x="80" y="1330" width="150" height="30" as="geometry" />
        </mxCell>
        <mxCell id="zVx8EVchHj5CL49JaXiL-78" style="edgeStyle=orthogonalEdgeStyle;rounded=0;orthogonalLoop=1;jettySize=auto;html=1;exitX=0;exitY=0.5;exitDx=0;exitDy=0;entryX=0;entryY=0.5;entryDx=0;entryDy=0;strokeWidth=3;" parent="1" source="zVx8EVchHj5CL49JaXiL-65" target="zVx8EVchHj5CL49JaXiL-7" edge="1">
          <mxGeometry relative="1" as="geometry">
            <Array as="points">
              <mxPoint x="50" y="1390" />
              <mxPoint x="50" y="220" />
            </Array>
          </mxGeometry>
        </mxCell>
        <mxCell id="zVx8EVchHj5CL49JaXiL-65" value="Part Number" style="rounded=0;whiteSpace=wrap;html=1;fontStyle=4" parent="1" vertex="1">
          <mxGeometry x="120" y="1360" width="120" height="60" as="geometry" />
        </mxCell>
        <mxCell id="zVx8EVchHj5CL49JaXiL-79" style="edgeStyle=orthogonalEdgeStyle;rounded=0;orthogonalLoop=1;jettySize=auto;html=1;exitX=0.5;exitY=0;exitDx=0;exitDy=0;entryX=0;entryY=0.5;entryDx=0;entryDy=0;strokeWidth=3;" parent="1" source="zVx8EVchHj5CL49JaXiL-66" target="zVx8EVchHj5CL49JaXiL-24" edge="1">
          <mxGeometry relative="1" as="geometry">
            <Array as="points">
              <mxPoint x="300" y="1320" />
              <mxPoint x="-80" y="1320" />
              <mxPoint x="-80" y="640" />
            </Array>
          </mxGeometry>
        </mxCell>
        <mxCell id="zVx8EVchHj5CL49JaXiL-66" value="Company ID" style="rounded=0;whiteSpace=wrap;html=1;fontStyle=4" parent="1" vertex="1">
          <mxGeometry x="240" y="1360" width="120" height="60" as="geometry" />
        </mxCell>
        <mxCell id="zVx8EVchHj5CL49JaXiL-67" value="&lt;b&gt;&lt;font style=&quot;font-size: 22px;&quot;&gt;Fix&lt;/font&gt;&lt;/b&gt;" style="text;html=1;align=center;verticalAlign=middle;whiteSpace=wrap;rounded=0;fontSize=16;" parent="1" vertex="1">
          <mxGeometry x="65" y="1510" width="150" height="30" as="geometry" />
        </mxCell>
        <mxCell id="zVx8EVchHj5CL49JaXiL-81" style="edgeStyle=orthogonalEdgeStyle;rounded=0;orthogonalLoop=1;jettySize=auto;html=1;exitX=0.5;exitY=0;exitDx=0;exitDy=0;entryX=0;entryY=0.5;entryDx=0;entryDy=0;strokeWidth=3;" parent="1" source="zVx8EVchHj5CL49JaXiL-68" target="zVx8EVchHj5CL49JaXiL-1" edge="1">
          <mxGeometry relative="1" as="geometry">
            <Array as="points">
              <mxPoint x="175" y="1540" />
              <mxPoint x="175" y="1470" />
              <mxPoint x="-210" y="1470" />
              <mxPoint x="-210" y="100" />
            </Array>
          </mxGeometry>
        </mxCell>
        <mxCell id="zVx8EVchHj5CL49JaXiL-68" value="VIN number" style="rounded=0;whiteSpace=wrap;html=1;fontStyle=4" parent="1" vertex="1">
          <mxGeometry x="120" y="1540" width="120" height="60" as="geometry" />
        </mxCell>
        <mxCell id="zVx8EVchHj5CL49JaXiL-82" style="edgeStyle=orthogonalEdgeStyle;rounded=0;orthogonalLoop=1;jettySize=auto;html=1;exitX=0.5;exitY=0;exitDx=0;exitDy=0;entryX=0;entryY=0.75;entryDx=0;entryDy=0;strokeWidth=3;" parent="1" source="zVx8EVchHj5CL49JaXiL-69" target="zVx8EVchHj5CL49JaXiL-7" edge="1">
          <mxGeometry relative="1" as="geometry">
            <Array as="points">
              <mxPoint x="295" y="1540" />
              <mxPoint x="295" y="1490" />
              <mxPoint x="-310" y="1490" />
              <mxPoint x="-310" y="235" />
            </Array>
          </mxGeometry>
        </mxCell>
        <mxCell id="zVx8EVchHj5CL49JaXiL-69" value="Part number" style="rounded=0;whiteSpace=wrap;html=1;fontStyle=4" parent="1" vertex="1">
          <mxGeometry x="240" y="1540" width="120" height="60" as="geometry" />
        </mxCell>
        <mxCell id="zVx8EVchHj5CL49JaXiL-83" style="edgeStyle=orthogonalEdgeStyle;rounded=0;orthogonalLoop=1;jettySize=auto;html=1;exitX=0.5;exitY=0;exitDx=0;exitDy=0;entryX=0;entryY=0.75;entryDx=0;entryDy=0;strokeWidth=3;" parent="1" source="zVx8EVchHj5CL49JaXiL-70" target="zVx8EVchHj5CL49JaXiL-24" edge="1">
          <mxGeometry relative="1" as="geometry">
            <Array as="points">
              <mxPoint x="415" y="1540" />
              <mxPoint x="415" y="1440" />
              <mxPoint x="-390" y="1440" />
              <mxPoint x="-390" y="655" />
            </Array>
          </mxGeometry>
        </mxCell>
        <mxCell id="zVx8EVchHj5CL49JaXiL-70" value="Company ID" style="rounded=0;whiteSpace=wrap;html=1;fontStyle=4" parent="1" vertex="1">
          <mxGeometry x="360" y="1540" width="120" height="60" as="geometry" />
        </mxCell>
      </root>
    </mxGraphModel>
  </diagram>
</mxfile>
